<svg width="684" height="270" viewBox="0 0 684 270" fill="none" xmlns="http://www.w3.org/2000/svg">
<path d="M0 216.51H124.974V265.021H170.256V216.51H203.77V177.574H170.256V3.57447H111.159L0 178.851V216.51ZM125.485 177.574H48.608V175.532L123.439 57.1914H125.485V177.574Z" fill="#B3B7B9" fill-opacity="0.24"/>
<path d="M341.471 270C404.662 270.127 442.397 220.34 442.397 134.553C442.397 49.2766 404.406 0 341.471 0C278.537 0 240.674 49.1489 240.546 134.553C240.546 220.213 278.281 270 341.471 270ZM341.471 230.042C308.853 230.042 288.386 197.362 288.514 134.553C288.642 72.2552 308.981 39.4468 341.471 39.4468C374.09 39.4468 394.428 72.2552 394.556 134.553C394.556 197.362 374.218 230.042 341.471 230.042Z" fill="#B3B7B9" fill-opacity="0.24"/>
<path d="M480.164 216.51H605.138V265.021H650.42V216.51H683.934V177.574H650.42V3.57447H591.323L480.164 178.851V216.51ZM605.649 177.574H528.772V175.532L603.603 57.1914H605.649V177.574Z" fill="#B3B7B9" fill-opacity="0.24"/>
</svg>
