<svg width="58" height="58" viewBox="0 0 58 58" fill="none" xmlns="http://www.w3.org/2000/svg">
<path fill-rule="evenodd" clip-rule="evenodd" d="M24.3349 7.99702C28.2686 2.29608 35.3483 -1.1149 43.0846 0.332401C50.6785 1.72992 56.6903 8.03196 57.7977 15.6788C59.327 26.1998 51.9968 35.2705 42.1881 36.6944V44.8158C42.1881 47.1362 41.1598 49.2193 39.5513 50.6696V58H31.6411V52.7263H10.547V58H2.63676V50.6696C1.02833 49.2193 0 47.1362 0 44.8158V18.4475C0 9.21854 9.43959 7.90012 21.0941 7.90012C22.2015 7.90012 23.3089 7.90012 24.3636 7.95286C24.3504 7.96604 24.3439 7.97922 24.3373 7.99241L24.3349 7.99702ZM5.27351 43.4974C5.27351 45.686 7.04014 47.4527 9.22865 47.4527C11.4172 47.4527 13.1838 45.686 13.1838 43.4974C13.1838 41.3088 11.4172 39.5421 9.22865 39.5421C7.04014 39.5421 5.27351 41.3088 5.27351 43.4974ZM5.27351 31.6316V18.4475H21.0941C21.0941 23.6157 23.2298 28.2829 26.6576 31.6316H5.27351ZM29.0043 43.4974C29.0043 45.686 30.7709 47.4527 32.9595 47.4527C35.148 47.4527 36.9146 45.686 36.9146 43.4974C36.9146 41.3088 35.148 39.5421 32.9595 39.5421C30.7709 39.5421 29.0043 41.3088 29.0043 43.4974ZM39.5513 31.6316C32.2739 31.6316 26.3676 25.7251 26.3676 18.4475C26.3676 11.1698 32.2739 5.26328 39.5513 5.26328C46.8288 5.26328 52.7351 11.1698 52.7351 18.4475C52.7351 25.7251 46.8288 31.6316 39.5513 31.6316ZM36.9146 7.90012H40.8697V19.1067L48.4372 23.5366L46.4596 26.7799L36.9146 21.0843V7.90012Z" fill="#6A7275" fill-opacity="0.5"/>
</svg>
