<svg width="20" height="20" viewBox="0 0 20 20" fill="none" xmlns="http://www.w3.org/2000/svg">
<path fill-rule="evenodd" clip-rule="evenodd" d="M8.39136 2.75759C9.74778 0.791752 12.1891 -0.38445 14.8568 0.114621C17.4753 0.596526 19.5484 2.76964 19.9302 5.40648C20.4576 9.0344 17.9299 12.1622 14.5476 12.6532V15.4537C14.5476 16.2539 14.193 16.9722 13.6384 17.4723V20H10.9107V18.1815H3.63691V20H0.909226V17.4723C0.354598 16.9722 0 16.2539 0 15.4537V6.36119C0 3.17881 3.25503 2.72418 7.27381 2.72418C7.65569 2.72418 8.03756 2.72418 8.40125 2.74236C8.39671 2.74691 8.39443 2.75146 8.39216 2.756L8.39136 2.75759ZM1.81845 14.9991C1.81845 15.7538 2.42763 16.363 3.18229 16.363C3.93695 16.363 4.54613 15.7538 4.54613 14.9991C4.54613 14.2444 3.93695 13.6352 3.18229 13.6352C2.42763 13.6352 1.81845 14.2444 1.81845 14.9991ZM1.81845 10.9075V6.36119H7.27381C7.27381 8.14333 8.01028 9.75271 9.19228 10.9075H1.81845ZM10.0015 14.9991C10.0015 15.7538 10.6107 16.363 11.3653 16.363C12.12 16.363 12.7292 15.7538 12.7292 14.9991C12.7292 14.2444 12.12 13.6352 11.3653 13.6352C10.6107 13.6352 10.0015 14.2444 10.0015 14.9991ZM13.6384 10.9075C11.1289 10.9075 9.09226 8.87073 9.09226 6.36119C9.09226 3.85165 11.1289 1.81493 13.6384 1.81493C16.1479 1.81493 18.1845 3.85165 18.1845 6.36119C18.1845 8.87073 16.1479 10.9075 13.6384 10.9075ZM12.7292 2.72418H14.093V6.58851L16.7025 8.11605L16.0206 9.23444L12.7292 7.27045V2.72418Z" fill="#6A7275" fill-opacity="0.5"/>
</svg>
