<svg width="17" height="15" viewBox="0 0 17 15" fill="none" xmlns="http://www.w3.org/2000/svg">
<path fill-rule="evenodd" clip-rule="evenodd" d="M2.295 0H14.7144L17 6.5625V15H14.1667V13.125H2.83333V15H0V6.5625L2.295 0ZM1.88889 8.90625C1.88889 9.68437 2.52167 10.3125 3.30556 10.3125C4.08944 10.3125 4.72222 9.68437 4.72222 8.90625C4.72222 8.12813 4.08944 7.5 3.30556 7.5C2.52167 7.5 1.88889 8.12813 1.88889 8.90625ZM13.6944 10.3125C12.9106 10.3125 12.2778 9.68437 12.2778 8.90625C12.2778 8.12813 12.9106 7.5 13.6944 7.5C14.4783 7.5 15.1111 8.12813 15.1111 8.90625C15.1111 9.68437 14.4783 10.3125 13.6944 10.3125ZM3.30556 1.40625L1.88889 5.625H15.1111L13.6944 1.40625H3.30556Z" fill="#6A7275" fill-opacity="0.5"/>
</svg>
