<svg width="49" height="44" viewBox="0 0 49 44" fill="none" xmlns="http://www.w3.org/2000/svg">
<path fill-rule="evenodd" clip-rule="evenodd" d="M6.615 0H42.4122L49 19.25V44H40.8333V38.5H8.16667V44H0V19.25L6.615 0ZM5.44444 26.125C5.44444 28.4075 7.26833 30.25 9.52778 30.25C11.7872 30.25 13.6111 28.4075 13.6111 26.125C13.6111 23.8425 11.7872 22 9.52778 22C7.26833 22 5.44444 23.8425 5.44444 26.125ZM39.4722 30.25C37.2128 30.25 35.3889 28.4075 35.3889 26.125C35.3889 23.8425 37.2128 22 39.4722 22C41.7317 22 43.5556 23.8425 43.5556 26.125C43.5556 28.4075 41.7317 30.25 39.4722 30.25ZM9.52778 4.125L5.44444 16.5H43.5556L39.4722 4.125H9.52778Z" fill="#6A7275" fill-opacity="0.5"/>
</svg>
