<svg width="15" height="15" viewBox="0 0 15 15" fill="none" xmlns="http://www.w3.org/2000/svg">
<path d="M7.91667 0H7.08333C3.17131 0 0 3.35785 0 7.49998V7.50002C0 11.6421 3.17131 15 7.08333 15H7.91667C11.8287 15 15 11.6421 15 7.50002V7.49998C15 3.35785 11.8287 0 7.91667 0Z" fill="#333333"/>
<path d="M7.8708 12.4444V8.13634H9.40191L9.63114 6.45741H7.8708V5.38547C7.8708 4.89939 8.01374 4.5681 8.75184 4.5681L9.69319 4.56769V3.06609C9.53031 3.0457 8.97156 3 8.32148 3C6.96426 3 6.03508 3.78239 6.03508 5.21928V6.45746H4.5V8.13638H6.03503V12.4445L7.8708 12.4444Z" fill="white"/>
</svg>
