<svg width="15" height="15" viewBox="0 0 15 15" fill="none" xmlns="http://www.w3.org/2000/svg">
<rect width="15" height="14.1667" rx="7.08333" fill="#323D43"/>
<path d="M5.93775 7.08333C5.93775 6.26836 6.63709 5.60752 7.5 5.60752C8.36291 5.60752 9.06262 6.26836 9.06262 7.08333C9.06262 7.89831 8.36291 8.55915 7.5 8.55915C6.63709 8.55915 5.93775 7.89831 5.93775 7.08333ZM5.09302 7.08333C5.09302 8.33885 6.17062 9.35659 7.5 9.35659C8.82937 9.35659 9.90697 8.33885 9.90697 7.08333C9.90697 5.82781 8.82937 4.81008 7.5 4.81008C6.17062 4.81008 5.09302 5.82781 5.09302 7.08333ZM9.43976 4.71994C9.43972 4.82502 9.47266 4.92774 9.53444 5.01513C9.59621 5.10251 9.68403 5.17064 9.78679 5.21089C9.88956 5.25113 10.0027 5.2617 10.1118 5.24124C10.2209 5.22078 10.3212 5.17022 10.3999 5.09596C10.4785 5.02169 10.5322 4.92705 10.5539 4.82401C10.5757 4.72096 10.5646 4.61414 10.522 4.51705C10.4795 4.41996 10.4074 4.33697 10.315 4.27856C10.2225 4.22015 10.1137 4.18895 10.0025 4.18891H10.0023C9.85314 4.18897 9.71014 4.24493 9.60467 4.3445C9.4992 4.44407 9.43989 4.5791 9.43976 4.71994ZM5.60625 10.6869C5.14924 10.6672 4.90084 10.5953 4.73576 10.5346C4.51691 10.4541 4.36076 10.3583 4.19659 10.2034C4.03241 10.0486 3.93079 9.90126 3.84596 9.69457C3.78161 9.53874 3.70549 9.30406 3.68471 8.87244C3.66199 8.40579 3.65745 8.26561 3.65745 7.08337C3.65745 5.90113 3.66236 5.76134 3.68471 5.2943C3.70552 4.86267 3.78221 4.62846 3.84596 4.47217C3.93116 4.26548 4.03264 4.118 4.19659 3.96295C4.36054 3.80789 4.51654 3.71191 4.73576 3.6318C4.90076 3.57103 5.14924 3.49913 5.60625 3.47951C6.10035 3.45805 6.24878 3.45376 7.5 3.45376C8.75122 3.45376 8.8998 3.4584 9.39431 3.47951C9.85133 3.49917 10.0993 3.57159 10.2648 3.6318C10.4836 3.71191 10.6398 3.80811 10.804 3.96295C10.9682 4.11779 11.0694 4.26548 11.1546 4.47217C11.219 4.628 11.2951 4.86267 11.3159 5.2943C11.3386 5.76134 11.3431 5.90113 11.3431 7.08337C11.3431 8.26561 11.3386 8.4054 11.3159 8.87244C11.295 9.30406 11.2185 9.53866 11.1546 9.69457C11.0694 9.90126 10.9679 10.0487 10.804 10.2034C10.64 10.3581 10.4836 10.4541 10.2648 10.5346C10.0998 10.5954 9.85133 10.6673 9.39431 10.6869C8.90021 10.7083 8.75179 10.7126 7.5 10.7126C6.24821 10.7126 6.1002 10.7083 5.60625 10.6869ZM5.56744 2.68306C5.06842 2.70452 4.72744 2.77925 4.42965 2.88869C4.12125 3.0017 3.86018 3.15332 3.59929 3.39933C3.3384 3.64533 3.17827 3.89229 3.05861 4.18356C2.94274 4.46498 2.86361 4.78685 2.84089 5.25814C2.81779 5.73017 2.8125 5.88108 2.8125 7.08333C2.8125 8.28559 2.81779 8.4365 2.84089 8.90853C2.86361 9.37986 2.94274 9.70169 3.05861 9.98311C3.17827 10.2742 3.33844 10.5214 3.59929 10.7673C3.86014 11.0132 4.12125 11.1646 4.42965 11.278C4.728 11.3874 5.06842 11.4621 5.56744 11.4836C6.0675 11.5051 6.22703 11.5104 7.5 11.5104C8.77297 11.5104 8.93276 11.5054 9.43256 11.4836C9.93161 11.4621 10.2724 11.3874 10.5703 11.278C10.8786 11.1646 11.1398 11.0133 11.4007 10.7673C11.6616 10.5213 11.8214 10.2742 11.9414 9.98311C12.0573 9.70169 12.1368 9.37982 12.1591 8.90853C12.1818 8.43614 12.1871 8.28559 12.1871 7.08333C12.1871 5.88108 12.1818 5.73017 12.1591 5.25814C12.1364 4.78681 12.0573 4.4648 11.9414 4.18356C11.8214 3.89247 11.6612 3.64572 11.4007 3.39933C11.1402 3.15293 10.8786 3.0017 10.5707 2.88869C10.2724 2.77925 9.93157 2.70417 9.43294 2.68306C8.93314 2.6616 8.77335 2.65625 7.50037 2.65625C6.2274 2.65625 6.0675 2.66124 5.56744 2.68306Z" fill="white"/>
</svg>
