<svg width="15" height="15" viewBox="0 0 15 15" fill="none" xmlns="http://www.w3.org/2000/svg">
<path d="M7.91667 0H7.08333C3.17131 0 0 3.35785 0 7.49998V7.50002C0 11.6421 3.17131 15 7.08333 15H7.91667C11.8287 15 15 11.6421 15 7.50002V7.49998C15 3.35785 11.8287 0 7.91667 0Z" fill="#333333"/>
<path d="M6.00037 7.50001C6.00037 6.67161 6.67176 5.99989 7.50019 5.99989C8.32862 5.99989 9.00037 6.67161 9.00037 7.50001C9.00037 8.32841 8.32862 9.00014 7.50019 9.00014C6.67176 9.00014 6.00037 8.32841 6.00037 7.50001ZM5.18939 7.50001C5.18939 8.77621 6.22393 9.81071 7.50019 9.81071C8.77644 9.81071 9.81098 8.77621 9.81098 7.50001C9.81098 6.2238 8.77644 5.18931 7.50019 5.18931C6.22393 5.18931 5.18939 6.2238 5.18939 7.50001ZM9.36244 5.09768C9.3624 5.2045 9.39403 5.30891 9.45334 5.39774C9.51264 5.48656 9.59695 5.55581 9.6956 5.59672C9.79427 5.63762 9.90289 5.64837 10.0076 5.62757C10.1124 5.60677 10.2087 5.55538 10.2842 5.4799C10.3597 5.40441 10.4112 5.30821 10.4321 5.20347C10.453 5.09872 10.4423 4.99014 10.4014 4.89145C10.3606 4.79276 10.2914 4.70841 10.2027 4.64903C10.1139 4.58966 10.0095 4.55795 9.90269 4.55791H9.9025C9.7593 4.55797 9.62202 4.61485 9.52076 4.71606C9.41951 4.81727 9.36257 4.95452 9.36244 5.09768ZM5.68211 11.1629C5.24337 11.1429 5.00489 11.0698 4.84641 11.0081C4.6363 10.9263 4.48639 10.8289 4.32878 10.6715C4.17116 10.5141 4.0736 10.3644 3.99216 10.1543C3.93039 9.99586 3.85731 9.75732 3.83736 9.31859C3.81555 8.84425 3.81119 8.70176 3.81119 7.50005C3.81119 6.29833 3.8159 6.15624 3.83736 5.68151C3.85734 5.24277 3.93096 5.0047 3.99216 4.84583C4.07396 4.63574 4.17138 4.48583 4.32878 4.32822C4.48618 4.17061 4.63595 4.07305 4.84641 3.99162C5.00482 3.92985 5.24337 3.85676 5.68211 3.83682C6.15647 3.81501 6.29897 3.81065 7.50019 3.81065C8.70141 3.81065 8.84406 3.81536 9.31881 3.83682C9.75756 3.85681 9.99563 3.93042 10.1545 3.99162C10.3646 4.07305 10.5145 4.17083 10.6722 4.32822C10.8298 4.48562 10.927 4.63574 11.0088 4.84583C11.0706 5.00423 11.1436 5.24277 11.1636 5.68151C11.1854 6.15624 11.1897 6.29833 11.1897 7.50005C11.1897 8.70176 11.1854 8.84385 11.1636 9.31859C11.1435 9.75732 11.0701 9.99578 11.0088 10.1543C10.927 10.3644 10.8295 10.5142 10.6722 10.6715C10.5147 10.8287 10.3646 10.9263 10.1545 11.0081C9.99611 11.0699 9.75756 11.143 9.31881 11.1629C8.84445 11.1847 8.70196 11.1891 7.50019 11.1891C6.29842 11.1891 6.15633 11.1847 5.68211 11.1629ZM5.64486 3.02725C5.16578 3.04907 4.83842 3.12503 4.55253 3.23627C4.25645 3.35114 4.00582 3.50526 3.75535 3.75532C3.50489 4.00537 3.35115 4.2564 3.23628 4.55247C3.12504 4.83852 3.04907 5.1657 3.02726 5.64475C3.00508 6.12456 3 6.27795 3 7.50001C3 8.72207 3.00508 8.87547 3.02726 9.35527C3.04907 9.83437 3.12504 10.1615 3.23628 10.4476C3.35115 10.7434 3.50492 10.9947 3.75535 11.2447C4.00578 11.4946 4.25645 11.6485 4.55253 11.7638C4.83896 11.875 5.16578 11.9509 5.64486 11.9728C6.12493 11.9946 6.27809 12 7.50019 12C8.7223 12 8.8757 11.9949 9.35553 11.9728C9.83464 11.9509 10.1618 11.875 10.4478 11.7638C10.7438 11.6485 10.9945 11.4947 11.245 11.2447C11.4955 10.9946 11.6489 10.7434 11.7641 10.4476C11.8754 10.1615 11.9517 9.83432 11.9731 9.35527C11.9949 8.8751 12 8.72207 12 7.50001C12 6.27795 11.9949 6.12456 11.9731 5.64475C11.9513 5.16566 11.8754 4.83834 11.7641 4.55247C11.6489 4.25658 11.4951 4.00577 11.245 3.75532C10.9949 3.50486 10.7438 3.35114 10.4482 3.23627C10.1618 3.12503 9.8346 3.04871 9.35589 3.02725C8.87606 3.00544 8.72266 3 7.50055 3C6.27844 3 6.12493 3.00507 5.64486 3.02725Z" fill="white"/>
</svg>
