<svg width="13" height="17" viewBox="0 0 13 17" fill="none" xmlns="http://www.w3.org/2000/svg">
<path d="M6.5 8.6665C5.60625 8.6665 4.875 7.9465 4.875 7.0665C4.875 6.1865 5.60625 5.4665 6.5 5.4665C7.39375 5.4665 8.125 6.1865 8.125 7.0665C8.125 7.9465 7.39375 8.6665 6.5 8.6665ZM11.375 7.2265C11.375 4.3225 9.22187 2.2665 6.5 2.2665C3.77813 2.2665 1.625 4.3225 1.625 7.2265C1.625 9.0985 3.20937 11.5785 6.5 14.5385C9.79063 11.5785 11.375 9.0985 11.375 7.2265ZM6.5 0.666504C9.9125 0.666504 13 3.2425 13 7.2265C13 9.8825 10.8306 13.0265 6.5 16.6665C2.16938 13.0265 0 9.8825 0 7.2265C0 3.2425 3.0875 0.666504 6.5 0.666504Z" fill="#676767"/>
</svg>
