<svg width="44" height="52" viewBox="0 0 44 52" fill="none" xmlns="http://www.w3.org/2000/svg">
<path fill-rule="evenodd" clip-rule="evenodd" d="M22 0C11 0 0 1.36842 0 10.9474V36.9474C0 42.2295 4.3175 46.5263 9.625 46.5263L5.5 50.6316V52H11L16.5 46.5263H27.5L33 52H38.5V50.6316L34.375 46.5263C39.6825 46.5263 44 42.2295 44 36.9474V10.9474C44 1.36842 33 0 22 0ZM9.625 41.0526C7.3425 41.0526 5.5 39.2189 5.5 36.9474C5.5 34.6758 7.3425 32.8421 9.625 32.8421C11.9075 32.8421 13.75 34.6758 13.75 36.9474C13.75 39.2189 11.9075 41.0526 9.625 41.0526ZM5.5 21.8947H19.25V10.9474H5.5V21.8947ZM34.375 41.0526C32.0925 41.0526 30.25 39.2189 30.25 36.9474C30.25 34.6758 32.0925 32.8421 34.375 32.8421C36.6575 32.8421 38.5 34.6758 38.5 36.9474C38.5 39.2189 36.6575 41.0526 34.375 41.0526ZM24.75 21.8947H38.5V10.9474H24.75V21.8947Z" fill="#6A7275" fill-opacity="0.5"/>
</svg>
