<svg width="16" height="18" viewBox="0 0 16 18" fill="none" xmlns="http://www.w3.org/2000/svg">
<path fill-rule="evenodd" clip-rule="evenodd" d="M8 0C4 0 0 0.473684 0 3.78947V12.7895C0 14.6179 1.57 16.1053 3.5 16.1053L2 17.5263V18H4L6 16.1053H10L12 18H14V17.5263L12.5 16.1053C14.43 16.1053 16 14.6179 16 12.7895V3.78947C16 0.473684 12 0 8 0ZM3.5 14.2105C2.67 14.2105 2 13.5758 2 12.7895C2 12.0032 2.67 11.3684 3.5 11.3684C4.33 11.3684 5 12.0032 5 12.7895C5 13.5758 4.33 14.2105 3.5 14.2105ZM2 7.57895H7V3.78947H2V7.57895ZM12.5 14.2105C11.67 14.2105 11 13.5758 11 12.7895C11 12.0032 11.67 11.3684 12.5 11.3684C13.33 11.3684 14 12.0032 14 12.7895C14 13.5758 13.33 14.2105 12.5 14.2105ZM9 7.57895H14V3.78947H9V7.57895Z" fill="#6A7275" fill-opacity="0.5"/>
</svg>
