<svg width="59" height="58" viewBox="0 0 59 58" fill="none" xmlns="http://www.w3.org/2000/svg">
<path d="M0 57.9999L46.3489 57.9999L59 28.9381L12.6511 28.9381L0 57.9999Z" fill="#FFDC60"/>
<path d="M0 -1.71661e-05L46.3489 -1.71661e-05L59 28.9382L12.6511 28.9382L0 -1.71661e-05Z" fill="#FFDC60"/>
<path d="M35.5 32H34.71L34.43 31.73C35.41 30.59 36 29.11 36 27.5C36 23.91 33.09 21 29.5 21C25.91 21 23 23.91 23 27.5C23 31.09 25.91 34 29.5 34C31.11 34 32.59 33.41 33.73 32.43L34 32.71V33.5L39 38.49L40.49 37L35.5 32ZM29.5 32C27.01 32 25 29.99 25 27.5C25 25.01 27.01 23 29.5 23C31.99 23 34 25.01 34 27.5C34 29.99 31.99 32 29.5 32Z" fill="#202020"/>
</svg>
