<svg width="97" height="27" viewBox="0 0 97 27" fill="none" xmlns="http://www.w3.org/2000/svg">
<path fill-rule="evenodd" clip-rule="evenodd" d="M6.63444 0.21276C6.52366 0.331996 6.43296 0.490583 6.43296 0.565135C6.43296 0.639688 6.32985 0.92889 6.20385 1.20766C5.5231 2.71435 5.00706 3.91632 4.48518 5.21109C4.11851 6.12077 3.74222 7.01623 3.38955 7.81865C3.03688 8.62106 2.66059 9.51652 2.29392 10.4262C1.92725 11.3359 1.55097 12.2313 1.1983 13.0338C1.01204 13.4575 0.738011 14.0975 0.589249 14.4561C0.440609 14.8146 0.242909 15.2831 0.149902 15.4972C-0.0951534 16.0616 -0.0691016 16.1154 0.449009 16.1154C1.13475 16.1154 1.22897 15.9837 2.0048 13.9436C2.09963 13.6944 2.31304 13.2294 2.47896 12.9105C2.64501 12.5914 2.78087 12.2569 2.78087 12.1671C2.78087 12.0773 2.88106 11.9155 3.00353 11.8076C3.20013 11.6343 3.64763 11.6115 6.83396 11.6115C10.2253 11.6115 10.4489 11.6246 10.5627 11.8317C10.6293 11.9528 11.5207 14.473 12.5434 17.432L14.403 22.8121L14.4657 24.6492L14.5284 26.4864L14.916 26.5229C15.2031 26.55 15.3373 26.4982 15.4335 26.3231C15.5134 26.1776 15.7159 26.0723 15.959 26.0494C16.5202 25.9968 16.5165 25.7452 15.9301 24.0616L15.4304 22.6265L15.4871 15.7856C15.5183 12.0231 15.5531 8.8113 15.5643 8.64832C15.6056 8.04918 15.5558 8.05593 19.991 8.05262C24.0429 8.04965 24.1667 8.04266 24.9959 7.76756C25.5652 7.57875 26.0079 7.33495 26.3353 7.02986C27.0176 6.39397 27.1106 6.26182 27.3787 5.54794C27.8089 4.4018 27.6363 3.39007 26.7929 2.11616C26.2831 1.34598 25.6111 0.886932 24.4248 0.498287C23.6251 0.236228 23.5026 0.230894 19.0674 0.261237L14.5284 0.29229L14.4973 9.63576C14.4726 17.0224 14.4343 18.9692 14.3147 18.9309C14.2314 18.9042 14.0087 18.4065 13.8199 17.8249C13.6312 17.2432 13.4198 16.6073 13.3503 16.4117C13.2806 16.2162 13.1157 15.7361 12.9837 15.345C12.8516 14.9539 12.6933 14.4871 12.6318 14.3079C12.5702 14.1287 12.4694 13.8352 12.4078 13.656C12.3463 13.4768 12.1879 13.0101 12.0558 12.6189C11.9239 12.2278 11.7591 11.7478 11.6898 11.5522C11.6204 11.3566 11.3471 10.5566 11.0822 9.77431C10.8174 8.99205 10.5429 8.192 10.4722 7.99643C10.4016 7.80087 9.80969 6.04871 9.15694 4.10264C8.50419 2.15657 7.86689 0.436536 7.74053 0.280201C7.46273 -0.0637595 6.9221 -0.0967096 6.63444 0.21276ZM29.3716 0.390074C29.3371 0.477546 29.325 0.998108 29.3446 1.54676L29.3803 2.54427L32.1193 2.60922C33.6258 2.6449 35.0228 2.72881 35.2236 2.79554L35.5888 2.91691L35.5606 11.857C35.545 16.7741 35.5176 22.1306 35.4997 23.7603L35.4671 26.7234H36.0149H36.5627L36.6236 14.9779C36.6736 5.32369 36.7139 3.19794 36.8498 3.03864C36.9929 2.87069 37.4077 2.84047 39.9541 2.81309L42.893 2.78132V1.53681V0.29229L36.1637 0.261711C30.6244 0.236465 29.4232 0.259103 29.3716 0.390074ZM53.9704 0.616576C53.9401 0.698951 53.89 1.64644 53.859 2.72206C53.7784 5.52198 53.4835 8.10406 52.9419 10.7521C52.8719 11.0944 52.7632 11.6278 52.7005 11.9374C52.2737 14.043 52.3392 13.9652 50.9562 14.0072L49.832 14.0412V18.723V23.4047H50.3798H50.9276L50.9885 19.9082L51.0494 16.4117L53.6667 16.4402C55.1062 16.4558 57.8179 16.5092 59.6926 16.5587L63.1013 16.6488L63.1621 20.1453L63.223 23.6418H63.7708H64.3186V18.8415V14.0412L63.2839 13.982L62.2491 13.9227L62.1882 7.22602L62.1274 0.529341L58.0765 0.49805C54.8996 0.473634 54.0136 0.499236 53.9704 0.616576ZM66.1432 0.618235C66.1131 0.69978 66.0614 3.88657 66.0284 7.70012C65.9953 11.5137 65.9532 15.0605 65.9348 15.5821L65.9012 16.5303L70.202 16.5614C73.7884 16.5874 74.5932 16.5627 75.047 16.4127C75.9911 16.1006 76.5322 15.775 77.22 15.1053C78.649 13.7142 79.0888 11.9968 78.4754 10.2047C78.2075 9.42265 77.6999 8.57093 77.2272 8.11057C76.8827 7.77527 75.8684 7.10749 75.7034 7.10749C75.6284 7.10749 75.3919 7.01753 75.1775 6.90766C74.6441 6.63399 73.8076 6.49804 72.2679 6.4351C71.422 6.40049 70.8741 6.42929 70.7054 6.51724C70.2966 6.73011 70.2451 6.51487 70.6376 6.23444C70.8323 6.09529 71.1609 5.82067 71.368 5.62391C71.5751 5.42728 71.9363 5.13654 72.1706 4.97771C72.405 4.81889 72.6789 4.60389 72.7793 4.49994C72.8797 4.39599 73.1536 4.18217 73.388 4.02477C73.6223 3.86749 73.951 3.60128 74.1184 3.43321C74.2858 3.26514 74.6145 2.99846 74.8488 2.84058C75.0832 2.68271 75.4119 2.41603 75.5793 2.24796C75.7466 2.07989 76.0753 1.81321 76.3097 1.65533C76.8039 1.32228 77.4053 0.729886 77.4053 0.57604C77.4053 0.515355 75.0144 0.470078 71.8017 0.470078C67.429 0.470078 66.1859 0.502673 66.1432 0.618235ZM81.2434 0.610649C81.1725 0.808468 81.0652 2.88669 81.0716 3.93694C81.0743 4.37703 81.071 5.31041 81.0642 6.01114C81.0575 6.71186 81.0395 9.3654 81.0243 11.9078L80.9965 16.5303H81.5443H82.0921V8.5298V0.529341L81.6956 0.492124C81.4488 0.469012 81.2781 0.513696 81.2434 0.610649ZM83.9385 0.786185C83.8938 0.829566 83.8573 6.54011 83.8573 13.4761C83.8573 22.2774 83.8176 26.1594 83.7258 26.3263C83.5344 26.6746 83.9047 27.043 84.3989 26.9959L84.7703 26.9605L84.7498 18.6637C84.7383 14.1005 84.719 10.1803 84.7067 9.9521C84.6944 9.72394 84.7319 9.32392 84.7902 9.06316L84.8961 8.58906L89.2157 8.52138C91.5915 8.48417 93.7573 8.39989 94.0285 8.33423C94.9738 8.10512 95.6961 7.6213 96.1749 6.89688C96.664 6.15645 97.0021 5.32013 97 4.85551C96.998 4.45348 96.4765 2.98886 96.239 2.71886C96.1335 2.59879 95.9529 2.36079 95.8379 2.18976C95.5591 1.77552 94.6861 1.20209 93.9184 0.92889C93.3505 0.726685 92.8852 0.707129 88.6575 0.707129C86.1067 0.707129 83.9831 0.742687 83.9385 0.786185ZM8.45975 5.55742C9.09303 7.40594 9.58253 8.99098 9.54759 9.07976C9.45227 9.32155 4.38548 9.31621 4.29004 9.07418C4.22515 8.90943 4.41835 8.2534 4.76603 7.45762C4.86439 7.23242 5.05418 6.78155 5.18772 6.45561C5.81576 4.92284 5.96415 4.57496 6.84735 2.56478C6.95692 2.3154 7.10556 2.13038 7.1775 2.15373C7.24957 2.1772 7.8266 3.70878 8.45975 5.55742ZM23.1717 2.80657C25.6487 2.92521 25.8524 3.02074 26.2831 4.26739C26.4128 4.64288 26.3946 4.75097 26.1085 5.30058C25.9328 5.63814 25.5965 6.10181 25.361 6.33104C24.5389 7.13144 24.6651 7.1139 19.9792 7.0794L15.7458 7.04823L15.7123 4.97819C15.6939 3.83963 15.7067 2.83762 15.7407 2.75157C15.8067 2.5841 19.022 2.60792 23.1717 2.80657ZM61.1535 8.41127V13.9227H57.3188H53.4841L53.5028 13.5079C53.5131 13.2797 53.585 12.853 53.6626 12.5597C53.8252 11.9447 53.9934 11.1321 54.1592 10.1595C54.2231 9.78474 54.3326 9.14471 54.4025 8.73722C54.6537 7.27355 54.7794 6.07538 54.8346 4.61846C54.8654 3.8036 54.9152 3.06934 54.9453 2.98673C54.9878 2.86962 55.6792 2.84355 58.0766 2.8682L61.1535 2.89985V8.41127ZM72.7793 3.1881C72.7793 3.24879 72.6013 3.4197 72.3837 3.56762C72.166 3.71566 71.9059 3.92189 71.8054 4.02584C71.705 4.12978 71.4311 4.3436 71.1967 4.50101C70.9624 4.65829 70.6337 4.9245 70.4663 5.09257C70.2989 5.26063 69.9702 5.52732 69.7359 5.68519C69.5016 5.84307 69.1729 6.10975 69.0055 6.27782C68.8381 6.44589 68.5094 6.7134 68.2751 6.87246C68.0407 7.03152 67.7232 7.28279 67.5696 7.43083C67.4158 7.57899 67.2379 7.70012 67.174 7.70012C67.0425 7.70012 67.0084 3.28363 67.1389 3.15669C67.2672 3.03177 72.7793 3.06246 72.7793 3.1881ZM94.2367 3.25187C94.513 3.30556 94.8628 3.5048 95.1193 3.75453C95.5043 4.12943 95.544 4.23053 95.5435 4.83774C95.5433 5.31089 95.4673 5.62842 95.2848 5.91987C94.9439 6.4645 94.2694 7.05665 93.7953 7.2278C93.5854 7.30354 93.1604 7.47338 92.851 7.60518C92.411 7.79269 92.1589 7.82694 91.6945 7.76223C91.3679 7.71671 90.6761 7.68495 90.1572 7.69171C85.9598 7.74575 85.2695 7.69894 85.0764 7.34763C85.013 7.2323 84.9558 6.93113 84.9492 6.67831C84.9329 6.05819 85.0807 3.41188 85.142 3.22283C85.181 3.103 86.0796 3.08119 89.485 3.11722C91.8466 3.14223 93.9848 3.2028 94.2367 3.25187ZM74.3619 7.53217C76.7875 8.34751 77.9541 10.6497 76.909 12.5588C76.6089 13.1069 76.4103 13.3087 75.9109 13.5735C74.9888 14.0621 74.5609 14.1279 71.6228 14.2334C70.1498 14.2862 68.7529 14.3368 68.5185 14.3458C68.2842 14.3547 67.8733 14.3157 67.6055 14.259L67.1186 14.1558L67.0857 11.6416L67.0528 9.12728L67.5726 8.75808C68.2839 8.25281 69.6697 7.58195 70.0068 7.57982C70.1591 7.57875 70.3659 7.52624 70.4663 7.46307C70.7746 7.26904 73.7355 7.32155 74.3619 7.53217ZM43.9854 11.024C43.9406 11.0946 44.0009 11.2566 44.1195 11.3841C44.3223 11.6024 44.4858 11.6142 46.9009 11.5841L49.4668 11.5522V11.2559V10.9596L46.7668 10.9277C44.9283 10.906 44.0407 10.9367 43.9854 11.024Z" fill="black"/>
</svg>
