<svg width="89" height="42" viewBox="0 0 89 42" fill="none" xmlns="http://www.w3.org/2000/svg">
<path d="M67.7324 20H66.3789V15.6934C65.791 15.8757 65.2441 16.0146 64.7383 16.1104C64.237 16.2061 63.7585 16.2539 63.3027 16.2539C62.8516 16.2539 62.43 16.1992 62.0381 16.0898C61.6462 15.9759 61.3066 15.7982 61.0195 15.5566C60.7324 15.3151 60.5068 15.0075 60.3428 14.6338C60.1833 14.2601 60.1035 13.8135 60.1035 13.2939V9.82129H61.457V12.6172C61.457 13.0137 61.4798 13.3509 61.5254 13.6289C61.571 13.9023 61.6735 14.1484 61.833 14.3672C61.9925 14.5814 62.2021 14.7432 62.4619 14.8525C62.7217 14.9574 63.0954 15.0098 63.583 15.0098C64.098 15.0098 64.5993 14.9642 65.0869 14.873C65.5745 14.7819 66.0052 14.668 66.3789 14.5312V9.82129H67.7324V20Z" fill="#323D43"/>
<path d="M49.9727 16.8486C49.9727 17.3408 49.8747 17.7874 49.6787 18.1885C49.4873 18.5895 49.2298 18.9154 48.9062 19.166C48.5234 19.4668 48.1133 19.681 47.6758 19.8086C47.2383 19.9362 46.6732 20 45.9805 20H42.2891V9.82129H49.1045V11.0244H43.6426V13.8135H46.0215C46.7142 13.8135 47.2793 13.8545 47.7168 13.9365C48.1543 14.014 48.5667 14.2031 48.9541 14.5039C49.3005 14.7728 49.5557 15.1055 49.7197 15.502C49.8883 15.8984 49.9727 16.3473 49.9727 16.8486ZM48.5576 16.876C48.5576 16.5342 48.5007 16.2334 48.3867 15.9736C48.2728 15.7139 48.0951 15.5042 47.8535 15.3447C47.6029 15.1761 47.3135 15.0736 46.9854 15.0371C46.6572 15.0007 46.1947 14.9824 45.5977 14.9824H43.6426V18.8447H45.5635C46.1696 18.8447 46.6344 18.8151 46.958 18.7559C47.2861 18.6966 47.5732 18.5827 47.8193 18.4141C48.0745 18.2363 48.2614 18.029 48.3799 17.792C48.4984 17.5505 48.5576 17.2451 48.5576 16.876Z" fill="#627C59"/>
<path d="M59.0918 9.82129L55.2227 18.3867C55.0677 18.7331 54.8831 19.0179 54.6689 19.2412C54.4593 19.4645 54.2314 19.6377 53.9854 19.7607C53.7484 19.8747 53.5182 19.9521 53.2949 19.9932C53.0762 20.0296 52.8643 20.0479 52.6592 20.0479C52.4769 20.0479 52.2559 20.0387 51.9961 20.0205C51.7363 20.0023 51.57 19.9909 51.4971 19.9863V18.7217H51.5928C51.6611 18.7308 51.7751 18.7467 51.9346 18.7695C52.0941 18.7878 52.2764 18.7969 52.4814 18.7969C52.5726 18.7969 52.7002 18.79 52.8643 18.7764C53.0283 18.7627 53.1742 18.7308 53.3018 18.6807C53.4476 18.626 53.5911 18.5394 53.7324 18.4209C53.8783 18.3024 54.0013 18.1292 54.1016 17.9014L54.3477 17.3613L50.5605 9.82129H52.0576L55.0312 15.8232L57.6973 9.82129H59.0918Z" fill="#EDB74B"/>
<path d="M78.4922 20H77.0498L76.0518 17.1631H71.6494L70.6514 20H69.2773L72.9824 9.82129H74.7871L78.4922 20ZM75.6348 16.001L73.8506 11.0039L72.0596 16.001H75.6348Z" fill="#ABC3CD"/>
<path d="M87.2695 20H85.916V15.6934C85.3281 15.8757 84.7812 16.0146 84.2754 16.1104C83.7741 16.2061 83.2956 16.2539 82.8398 16.2539C82.3887 16.2539 81.9671 16.1992 81.5752 16.0898C81.1833 15.9759 80.8438 15.7982 80.5566 15.5566C80.2695 15.3151 80.0439 15.0075 79.8799 14.6338C79.7204 14.2601 79.6406 13.8135 79.6406 13.2939V9.82129H80.9941V12.6172C80.9941 13.0137 81.0169 13.3509 81.0625 13.6289C81.1081 13.9023 81.2106 14.1484 81.3701 14.3672C81.5296 14.5814 81.7393 14.7432 81.999 14.8525C82.2588 14.9574 82.6325 15.0098 83.1201 15.0098C83.6351 15.0098 84.1364 14.9642 84.624 14.873C85.1117 14.7819 85.5423 14.668 85.916 14.5312V9.82129H87.2695V20Z" fill="#AF9680"/>
<path d="M46.3879 33.6H45.7239V29.1122H43.2321V33.6H42.568V28.5106H46.3879V33.6Z" fill="black"/>
<path d="M51.4353 33.6H50.7712V29.1122H48.9669C48.9602 29.3697 48.9502 29.6226 48.9367 29.871C48.9256 30.1171 48.9166 30.337 48.9099 30.5307C48.892 31.0183 48.8618 31.4193 48.8194 31.7338C48.7791 32.0482 48.7266 32.3069 48.6617 32.5097C48.5969 32.7147 48.5231 32.8788 48.4404 33.0019C48.3599 33.1226 48.2671 33.232 48.162 33.33C48.0547 33.4302 47.944 33.502 47.83 33.5453C47.7182 33.5886 47.5863 33.6103 47.4343 33.6103C47.3873 33.6103 47.3303 33.608 47.2632 33.6034C47.1962 33.6011 47.1492 33.6 47.1224 33.6V32.9437H47.1693C47.1917 32.946 47.2196 32.9483 47.2532 32.9506C47.2867 32.9529 47.3203 32.954 47.3538 32.954C47.4343 32.954 47.5103 32.9415 47.5818 32.9164C47.6534 32.8913 47.7138 32.8526 47.7629 32.8002C47.9217 32.6384 48.038 32.3718 48.1117 32.0004C48.1878 31.629 48.2414 31.1003 48.2727 30.4145C48.2839 30.1911 48.2951 29.8949 48.3062 29.5258C48.3197 29.1566 48.3308 28.8183 48.3398 28.5106H51.4353V33.6Z" fill="black"/>
<path d="M56.714 33.6H56.0064L55.5167 32.1815H53.3569L52.8673 33.6H52.1932L54.0109 28.5106H54.8963L56.714 33.6ZM55.3122 31.6005L54.4368 29.102L53.5582 31.6005H55.3122Z" fill="black"/>
<path d="M61.3287 33.2309C61.2058 33.2855 61.094 33.3368 60.9934 33.3847C60.895 33.4325 60.7653 33.4826 60.6043 33.5351C60.4679 33.5784 60.3193 33.6148 60.1583 33.6444C59.9995 33.6763 59.824 33.6923 59.6317 33.6923C59.2695 33.6923 58.9398 33.641 58.6424 33.5385C58.3473 33.4337 58.0902 33.2707 57.871 33.0497C57.6564 32.8332 57.4887 32.5587 57.368 32.226C57.2473 31.891 57.1869 31.5025 57.1869 31.0604C57.1869 30.6412 57.245 30.2663 57.3613 29.9359C57.4775 29.6055 57.6452 29.3264 57.8643 29.0985C58.0767 28.8775 58.3327 28.7089 58.6323 28.5927C58.9342 28.4765 59.2684 28.4184 59.6351 28.4184C59.9034 28.4184 60.1706 28.4514 60.4366 28.5175C60.7049 28.5836 61.0023 28.6998 61.3287 28.8661V29.6693H61.2784C61.0034 29.4346 60.7306 29.2637 60.4601 29.1566C60.1896 29.0495 59.9 28.996 59.5915 28.996C59.3389 28.996 59.1108 29.0382 58.9073 29.1225C58.7061 29.2045 58.5261 29.3332 58.3674 29.5087C58.2131 29.6796 58.0924 29.8961 58.0052 30.1581C57.9202 30.4179 57.8778 30.7187 57.8778 31.0604C57.8778 31.4182 57.9247 31.7258 58.0186 31.9833C58.1147 32.2408 58.2377 32.4504 58.3875 32.6122C58.544 32.7808 58.7262 32.9062 58.9342 32.9882C59.1443 33.0679 59.3657 33.1078 59.5982 33.1078C59.9179 33.1078 60.2175 33.052 60.497 32.9403C60.7765 32.8287 61.0381 32.6612 61.2818 32.4379H61.3287V33.2309Z" fill="black"/>
<path d="M65.8294 29.1122H64.0452V33.6H63.3812V29.1122H61.597V28.5106H65.8294V29.1122Z" fill="black"/>
<path fill-rule="evenodd" clip-rule="evenodd" d="M16.6742 0.125789C16.624 0.19497 16.473 0.327783 16.3386 0.420913C16.2042 0.514114 16.047 0.640746 15.9894 0.702341C15.9318 0.763936 15.7747 0.891622 15.6403 0.986087C15.3237 1.20859 14.0487 2.49106 13.8277 2.80936C13.7338 2.94457 13.6365 3.07099 13.6113 3.0903C13.5106 3.1677 12.916 4.21356 12.8085 4.5025C12.2459 6.01422 12.1627 6.31222 11.9971 7.4097C11.8998 8.05501 11.8995 10.8044 11.9968 11.3428C12.0386 11.5746 12.1013 11.9222 12.136 12.1154C12.2009 12.4757 12.809 14.3542 13.0232 14.8554C13.4819 15.9288 13.5411 16.0724 13.9645 17.1371C14.0413 17.3303 14.1653 17.6384 14.24 17.8219C14.3147 18.0054 14.4089 18.2741 14.4494 18.4189C14.4899 18.5638 14.5545 18.7872 14.5929 18.9155C14.6771 19.1969 14.6836 19.4548 14.6064 19.4548C14.5754 19.4548 14.4419 19.2269 14.3097 18.9483C14.0933 18.4924 13.3176 17.2248 13.2013 17.1371C13.1758 17.1178 13.078 16.9914 12.9841 16.8562C12.763 16.5378 11.488 15.2553 11.1715 15.033C11.0371 14.9385 10.9114 14.8419 10.8922 14.8181C10.7032 14.5846 9.64171 14.0123 9.55652 14.098C9.52133 14.1334 9.5022 15.5943 9.51246 17.4574L9.53061 20.7542L9.84483 20.7956C11.0842 20.959 12.5152 22.1693 12.8914 23.3724C12.9883 23.6822 12.9952 23.7943 12.9288 23.979C12.8315 24.2498 12.8219 24.5819 12.9115 24.5819C12.9467 24.5819 13.1249 24.3276 13.3073 24.0168C13.4898 23.7061 13.6673 23.4342 13.7017 23.4128C13.8563 23.3167 13.8132 23.4846 13.5463 24.0187C13.2174 24.6766 13.1913 24.5806 13.8853 25.2664C14.3385 25.7143 14.4121 25.7593 14.4882 25.6355C14.5841 25.4793 14.6628 25.582 14.663 25.8637C14.6634 26.2532 14.8227 26.5057 15.4866 27.168C15.7839 27.4646 16.1038 27.818 16.1976 27.9532C16.3805 28.2168 16.7096 28.5514 16.8812 28.6479C16.987 28.7075 16.9455 28.8662 16.8241 28.8662C16.7439 28.8662 12.6214 24.7299 12.4739 24.5013C12.4152 24.4104 12.3169 24.186 12.2554 24.0025C12.1413 23.6624 12.154 23.5655 12.3917 22.9583C12.4228 22.879 12.2881 22.694 11.944 22.3438C11.6733 22.0683 11.4224 21.8428 11.3865 21.8428C11.219 21.8428 10.9282 22.3078 10.7206 22.9073C10.5681 23.3474 10.5825 24.1842 10.7503 24.6461C11.0304 25.4168 11.7471 26.3499 12.4284 26.8309C12.5628 26.9258 13.1912 27.5257 13.8249 28.1639C14.4585 28.8021 15.087 29.4015 15.2214 29.496C15.3558 29.5905 15.567 29.777 15.6907 29.9107L15.9157 30.1536L15.9545 31.9916H17.7002L17.7393 30.272L18.4032 29.6042C18.7683 29.2369 19.0932 28.9365 19.125 28.9365C19.2298 28.9365 19.5574 28.3724 19.5035 28.2846C19.4748 28.2379 19.4276 28.0573 19.3988 27.8832C19.2857 27.2016 19.2504 27.0709 19.1471 26.9523C19.0883 26.8847 19.0156 26.8294 18.9856 26.8294C18.9556 26.8294 18.5349 27.2245 18.0507 27.7074C17.2352 28.5205 17.0368 28.6806 17.0368 28.5258C17.0368 28.4759 17.6426 27.7847 17.9568 27.4761C18.488 26.9544 18.9467 26.5355 19.091 26.4404C19.1878 26.3766 19.3056 26.2169 19.353 26.0853C19.4568 25.7964 19.5505 25.775 19.5505 26.0403C19.5505 26.147 19.6134 26.4074 19.6902 26.6187C19.767 26.8301 19.8298 27.0697 19.8298 27.1512C19.8298 27.4487 20.0321 27.5318 20.7564 27.5318C21.1716 27.5318 21.4458 27.5021 21.4753 27.454C21.5016 27.4113 21.4855 27.2454 21.4396 27.0853C21.1928 26.2243 21.063 25.8374 20.8826 25.4247C20.7727 25.1737 20.6113 24.8023 20.5237 24.5995C20.415 24.3474 20.3241 24.2308 20.2368 24.2308C20.1666 24.2308 20.1091 24.2143 20.1091 24.1941C20.1091 24.174 20.2371 23.9013 20.3936 23.5883C20.5501 23.2752 20.6522 22.9939 20.6205 22.9631C20.5889 22.9324 20.4687 22.8968 20.3535 22.8842L20.144 22.8612L20.1257 20.3097C20.1114 18.321 20.0883 17.7642 20.0209 17.7855C19.8814 17.8299 19.5013 18.5986 19.2913 19.2616C19.1842 19.5995 19.0731 19.876 19.0443 19.8761C18.9714 19.8763 18.9788 19.4737 19.0564 19.214C19.2312 18.6292 19.9706 16.4252 20.1007 16.1012C20.1822 15.8984 20.3155 15.5665 20.397 15.3637C20.619 14.8113 21.3053 12.7879 21.3796 12.4666C21.6735 11.1957 21.7319 10.598 21.7331 8.8495C21.7345 6.89214 21.6797 6.48731 21.2277 5.11403C21.0414 4.5478 20.3549 3.21553 20.185 3.0903C20.1588 3.07099 20.0605 2.94457 19.9667 2.80936C19.7458 2.49134 18.6098 1.34871 18.2937 1.12656C18.1593 1.03216 18.0336 0.93608 18.0144 0.913043C17.9952 0.890007 17.8695 0.795191 17.7351 0.702271C17.6007 0.609421 17.4436 0.483 17.3859 0.421405C17.267 0.294281 16.86 0 16.803 0C16.7824 0 16.7244 0.0566087 16.6742 0.125789ZM17.076 0.827147C17.1505 0.895836 17.3214 1.02865 17.4558 1.12234C17.5902 1.21603 17.7473 1.34309 17.8049 1.40468C17.8625 1.46628 18.0196 1.59389 18.154 1.68822C18.4689 1.90924 19.1887 2.63329 19.4082 2.94983C19.502 3.08503 19.598 3.21145 19.6216 3.23077C19.7411 3.32861 20.1277 3.9716 20.424 4.56522C20.8246 5.36792 20.8689 5.4987 21.1024 6.56689C21.2015 7.02074 21.2011 10.6388 21.1018 11.2023C21.0609 11.4341 20.9951 11.7502 20.9555 11.9047C20.916 12.0592 20.8543 12.312 20.8186 12.4666C20.666 13.1254 20.3026 14.1967 19.8298 15.3813C19.3734 16.5248 18.7159 18.3976 18.714 18.5594C18.7133 18.6269 18.6812 18.6823 18.6428 18.6823C18.5968 18.6823 18.573 16.4736 18.573 12.1965C18.573 5.97425 18.5677 5.70596 18.4437 5.59309C18.3297 5.48929 18.1345 5.4777 16.7854 5.49442L15.2563 5.51338L15.2385 12.1681C15.2287 15.8281 15.1952 18.8227 15.164 18.8227C15.1329 18.8227 15.0063 18.5146 14.8827 18.138C14.7591 17.7613 14.5962 17.3031 14.5207 17.1196C14.4453 16.936 14.3172 16.62 14.2362 16.4172C14.1552 16.2145 14.0015 15.8431 13.8947 15.592C13.7879 15.3409 13.6307 14.9616 13.5454 14.7492C13.4601 14.5367 13.3431 14.2523 13.2855 14.1171C13.1478 13.794 12.9175 13.0959 12.8396 12.765C12.8054 12.6202 12.7441 12.3674 12.7033 12.2032C12.4984 11.3788 12.4758 11.1004 12.4773 9.41137C12.4787 7.73109 12.5189 7.20778 12.7024 6.4791C12.7437 6.31489 12.806 6.06212 12.8408 5.91722C13.0052 5.23378 13.4905 4.21707 14.0517 3.38051C14.406 2.85235 15.4752 1.72158 15.9196 1.40517C16.054 1.30944 16.2111 1.19138 16.2687 1.14278C16.4373 1.00063 16.8588 0.709505 16.9014 0.705783C16.923 0.703886 17.0016 0.758528 17.076 0.827147ZM18.0493 20.0652L18.3875 20.5768C18.6714 21.0063 18.7187 21.1238 18.6817 21.3076C18.5277 22.0718 18.4895 22.2724 18.4259 22.6505C18.387 22.8823 18.3386 23.2695 18.3184 23.5109C18.2982 23.7523 18.2579 23.9498 18.2286 23.9498C18.1445 23.9498 17.9182 23.7259 17.7326 23.459C17.6389 23.3242 17.4927 23.1346 17.4078 23.0376C17.3229 22.9406 17.1793 22.7703 17.0887 22.6591C16.9422 22.4793 16.9079 22.4671 16.779 22.548C16.6994 22.598 16.5811 22.7293 16.5162 22.8398C16.4513 22.9502 16.3291 23.1108 16.2447 23.1967C16.1602 23.2826 16.0137 23.4635 15.9191 23.5987C15.8244 23.7339 15.709 23.8919 15.6625 23.9498C15.616 24.0078 15.5162 24.1342 15.4406 24.2308C15.1963 24.543 15.1949 24.3167 15.4386 23.9115C15.5687 23.6951 15.7232 23.4651 15.7819 23.4003C15.8405 23.3356 15.9649 23.172 16.0584 23.0368C16.2364 22.7792 16.8171 22.194 16.8947 22.194C16.9742 22.194 17.4216 22.6425 17.5952 22.8963C17.7762 23.161 18.0037 23.388 18.0878 23.388C18.1165 23.388 18.1577 23.2536 18.1793 23.0895C18.2009 22.9253 18.253 22.5855 18.295 22.3344C18.4815 21.2182 18.4514 20.8885 18.1336 20.5677C18.0821 20.5157 17.9792 20.3798 17.905 20.2656C17.7745 20.065 17.7688 19.8292 17.7351 13.2071L17.7002 6.35619H15.9545L15.8847 20.2034L15.3671 21.0056C15.0823 21.4467 14.7442 21.9737 14.6157 22.1764C14.4106 22.5001 14.2438 22.6437 14.2438 22.4967C14.2438 22.4354 14.7501 21.578 15.0863 21.0702C15.2269 20.8578 15.4405 20.4873 15.5609 20.247L15.78 19.81V12.9719C15.78 9.21092 15.8017 6.11191 15.8283 6.08522C15.8548 6.05847 16.3497 6.04533 16.928 6.05594L17.9795 6.07525L18.0493 20.0652ZM7.73241 11.7C7.70371 11.7289 7.68025 14.6857 7.68025 18.2708V24.7891L7.89189 24.8991C8.04334 24.9779 8.25673 25.0033 8.64251 24.9887L9.18149 24.9682L9.19936 19.3526C9.20921 16.264 9.24475 13.7093 9.27834 13.6755C9.31325 13.6404 9.46149 13.6767 9.62425 13.7602C9.78094 13.8406 9.95403 13.9064 10.009 13.9064C10.3685 13.9064 12.1979 15.4302 12.7072 16.1538C12.9537 16.5041 13.1427 16.7157 13.209 16.7157C13.2405 16.7157 13.2663 16.5889 13.2663 16.4339C13.2663 16.2247 13.1378 15.8939 12.7685 15.1521C12.0904 13.7898 11.8448 13.438 11.3112 13.0654C11.1767 12.9715 11.0511 12.873 11.0319 12.8464C10.9775 12.7711 10.1135 12.2679 9.87974 12.1754C9.76453 12.1297 9.52887 12.0371 9.35605 11.9695C9.18324 11.9019 8.86902 11.8212 8.6578 11.7902C8.44658 11.7592 8.16372 11.7143 8.02917 11.6907C7.89468 11.6669 7.76111 11.6712 7.73241 11.7ZM25.5555 11.7291C25.4979 11.7665 25.3273 11.7976 25.1764 11.7983C24.8585 11.7995 24.4582 11.9104 23.661 12.2181C22.7001 12.5891 21.6412 13.6445 21.0515 14.8188C20.801 15.3176 20.7303 15.5433 20.5124 16.5401C20.4643 16.7603 20.4333 17.9495 20.4295 19.728L20.4233 22.5646L20.8074 22.6846C21.3124 22.8425 21.5056 23.1101 21.5056 23.6514C21.5056 23.9348 21.4579 24.1199 21.3223 24.3626L21.1389 24.6907L21.3921 25.1964C21.5313 25.4746 21.6453 25.7455 21.6453 25.7984C21.6453 25.8514 21.7076 25.9513 21.7836 26.0205C21.9033 26.1295 21.9385 26.1333 22.0442 26.049C22.4633 25.7147 22.8375 25.1746 22.9633 24.7224C23.0117 24.5486 23.0805 24.3093 23.1164 24.1907C23.2128 23.871 23.1937 23.3942 23.0701 23.0368C22.856 22.4173 22.4868 21.8142 22.1993 21.6139L21.9209 21.4201L21.9448 19.0855C21.958 17.8014 22.0009 16.6244 22.0402 16.4699C22.1983 15.8481 22.6781 15.047 23.217 14.505C23.9437 13.774 24.5761 13.4613 25.5206 13.3659C26.0527 13.3122 26.1141 13.2228 26.1141 12.5017C26.1141 11.9996 26.0915 11.8707 25.9864 11.7751C25.8421 11.6438 25.7087 11.6295 25.5555 11.7291ZM6.7027 13.6938C6.64509 13.7322 6.41166 13.7642 6.18397 13.7648C5.95627 13.7654 5.67347 13.7952 5.55554 13.8311C5.4376 13.8669 5.10545 13.9676 4.81742 14.055C4.28053 14.2177 3.16459 14.7382 2.9931 14.9059C2.94038 14.9574 2.78725 15.0772 2.65284 15.1722C1.98196 15.6458 0.891917 17.0137 0.636496 17.7022C0.58699 17.8357 0.497405 18.0554 0.437425 18.1906C0.31544 18.4657 0.21566 18.8588 0.161197 19.2793C0.141227 19.4338 0.0966083 19.5903 0.0621845 19.6269C-0.0250969 19.7198 -0.0184635 21.7531 0.0693067 21.8077C0.107711 21.8316 0.139132 21.9497 0.139132 22.0702C0.139132 22.1908 0.168458 22.3864 0.204209 22.505C0.240029 22.6237 0.308597 22.863 0.356637 23.0368C0.464796 23.4285 0.923198 24.3709 1.20976 24.7908C1.46211 25.1605 2.02797 25.7412 2.37354 25.9851C2.50795 26.08 2.66101 26.1997 2.71366 26.2512C2.8311 26.366 3.86612 26.8941 4.15408 26.9862C4.72036 27.1673 5.64589 27.3268 6.1441 27.3291C6.52262 27.3309 7.18854 27.214 7.59374 27.0745C8.01932 26.928 8.13139 26.9743 7.86375 27.1861L7.67683 27.3339L7.71516 29.6037H11.5555V28.1288L9.25131 28.0585L9.23114 27.357C9.22003 26.9711 9.18463 26.6289 9.15244 26.5965C9.12032 26.5642 8.89842 26.6371 8.65934 26.7584C8.42033 26.8798 8.20903 26.9633 8.1899 26.9441C8.12518 26.879 8.24695 26.7579 8.51564 26.6201C8.66262 26.5446 8.82545 26.4413 8.87747 26.3905C8.92949 26.3396 9.08199 26.2211 9.2164 26.1271C9.51986 25.9148 9.56392 25.8705 9.775 25.5652C9.8685 25.43 9.98525 25.2776 10.0345 25.2266C10.1859 25.0698 10.1396 24.9831 9.93211 25.0346C8.71673 25.3361 8.06806 25.2889 7.21605 24.8369C6.77133 24.6009 6.69334 24.5275 6.50034 24.1633C6.30358 23.792 6.28375 23.6959 6.28375 23.113C6.28375 22.5227 6.30281 22.4334 6.52213 21.9953C6.65319 21.7335 6.90484 21.3654 7.08136 21.1776L7.4022 20.8359L7.36604 13.6605L7.08674 13.6422C6.93312 13.6322 6.7603 13.6553 6.7027 13.6938ZM26.1602 13.6728C26.1285 13.7047 25.8617 13.7514 25.5673 13.7766C24.6714 13.8534 24.2195 14.0074 23.7074 14.4105C23.0302 14.9434 22.696 15.4415 22.3797 16.3891C22.2069 16.9072 22.2039 16.9529 22.2039 19.0943C22.2039 20.4081 22.2304 21.2892 22.2708 21.3142C22.3076 21.3371 22.5668 21.2391 22.8469 21.0964C23.4918 20.7677 23.7474 20.7064 24.6255 20.6697C25.794 20.6209 26.371 20.907 26.9913 21.8428C27.2897 22.2931 27.3709 22.585 27.3709 23.2075C27.3709 23.6821 27.3429 23.8075 27.159 24.1546C27.0396 24.38 26.8558 24.6088 26.7379 24.6789C26.2715 24.9559 26.2537 25.0067 26.2537 26.0592C26.2537 27.1766 26.2712 27.2106 26.8822 27.2817C27.688 27.3756 28.6073 27.2718 29.5006 26.9862C29.7886 26.8941 30.8236 26.366 30.941 26.2512C30.9937 26.1997 31.1467 26.08 31.2812 25.9851C31.6267 25.7412 32.1926 25.1605 32.4449 24.7908C32.7315 24.3709 33.1899 23.4285 33.298 23.0368C33.3461 22.863 33.4147 22.6237 33.4505 22.505C33.4862 22.3864 33.5156 22.1908 33.5156 22.0702C33.5156 21.9497 33.547 21.8316 33.5854 21.8077C33.6269 21.7819 33.6552 21.3401 33.6552 20.7191C33.6552 20.098 33.6269 19.6562 33.5854 19.6304C33.547 19.6066 33.5156 19.4884 33.5156 19.3679C33.5156 19.2474 33.4862 19.0517 33.4505 18.9331C33.4147 18.8145 33.3461 18.5752 33.298 18.4013C33.1523 17.8737 32.4215 16.4837 32.1901 16.2943C32.1665 16.275 32.0709 16.1486 31.9776 16.0134C31.7633 15.703 31.5897 15.5284 31.2812 15.3129C31.1467 15.219 31.0211 15.1228 31.0019 15.0991C30.9827 15.0753 30.8255 14.9596 30.6527 14.8418C29.7953 14.2574 28.7759 13.8932 27.6153 13.7569C26.5837 13.6357 26.218 13.6146 26.1602 13.6728ZM6.84374 20.6968L6.64712 20.9037C5.87925 21.7119 5.52838 22.9895 5.83281 23.8686C6.10646 24.6589 6.35622 24.9665 6.98228 25.2844C7.59073 25.5934 7.95215 25.7035 8.36104 25.7046C8.5627 25.7052 8.72763 25.7357 8.72763 25.7725C8.72763 25.9317 7.58347 26.5868 7.08674 26.7121C6.72986 26.8021 5.58542 26.7994 5.13163 26.7075C4.29094 26.5372 3.73597 26.2962 2.93591 25.7541C2.37235 25.3724 2.08272 25.1055 1.81605 24.7224C1.722 24.5872 1.60316 24.4333 1.55211 24.3804C1.30982 24.1297 0.966071 23.2764 0.629025 22.0886C0.536577 21.7631 0.570931 19.7608 0.678322 19.209C0.739977 18.8925 0.792416 18.7329 1.07081 18.0151C1.25159 17.549 1.87387 16.6028 2.2688 16.1935C2.93025 15.5079 4.11693 14.7615 4.88724 14.5464C5.06006 14.4982 5.29795 14.4292 5.41589 14.3932C5.53382 14.3573 5.72235 14.3273 5.83484 14.3267C5.94733 14.3261 6.08649 14.2941 6.1441 14.2557C6.2017 14.2172 6.37452 14.194 6.52813 14.2041L6.80743 14.2224L6.84374 20.6968ZM27.9645 14.3146C28.6871 14.469 28.8788 14.5211 29.1166 14.6278C29.251 14.6881 29.4659 14.7768 29.5942 14.8247C30.027 14.9866 30.6465 15.4432 31.2318 16.032C32.0953 16.9005 32.4903 17.5466 32.8093 18.612C32.8961 18.9018 32.9962 19.2359 33.0318 19.3545C33.116 19.6348 33.116 21.8033 33.0318 22.0836C32.9962 22.2023 32.8961 22.5364 32.8093 22.8261C32.6451 23.3743 32.2632 24.2142 32.1026 24.3804C32.0515 24.4333 31.9327 24.5872 31.8386 24.7224C31.572 25.1055 31.2823 25.3724 30.7188 25.7541C30.0737 26.1912 29.8479 26.3089 29.3029 26.492C28.6626 26.7072 28.2471 26.7751 27.5106 26.7853L26.8473 26.7943L26.8077 25.3818L27.1293 25.0394C27.6827 24.45 27.9591 23.7549 27.9081 23.0811C27.8364 22.1339 27.6367 21.6913 26.9856 21.0365C26.4495 20.4971 26.0878 20.2923 25.5206 20.2067C24.6716 20.0785 23.8704 20.141 23.1861 20.3888C23.0159 20.4503 22.851 20.4848 22.8195 20.4653C22.7882 20.4458 22.7625 19.6378 22.7625 18.6698C22.7625 17.0413 22.774 16.8749 22.9168 16.444C23.1342 15.7881 23.5788 15.168 24.173 14.6924C24.3477 14.5526 25.0034 14.3279 25.2403 14.3267C25.3561 14.3261 25.4979 14.294 25.5555 14.2556C25.6868 14.1677 27.4829 14.2117 27.9645 14.3146ZM10.3336 15.0392C10.468 15.1212 10.5937 15.2095 10.6129 15.2355C10.6321 15.2615 10.7578 15.3599 10.8922 15.4543C11.208 15.676 12.205 16.6789 12.4256 16.9967C12.5195 17.1319 12.6473 17.2899 12.7096 17.3478C12.899 17.5238 13.5108 18.4758 13.7793 19.0122C13.9185 19.2902 14.1411 19.8433 14.2739 20.2413L14.5154 20.9649L13.9715 21.8779C13.6723 22.3801 13.3856 22.791 13.3343 22.791C13.2831 22.791 13.1528 22.6398 13.0449 22.455C12.937 22.2703 12.5949 21.8665 12.2847 21.5579C11.8486 21.1239 11.5796 20.9254 11.0984 20.6823C10.7561 20.5093 10.4072 20.3679 10.3231 20.3679C10.2389 20.3679 10.1126 20.3156 10.0424 20.2517C9.92303 20.1431 9.91465 19.9658 9.91465 17.5594C9.91465 16.1425 9.9356 14.9622 9.96123 14.9365C10.0307 14.8666 10.0669 14.8766 10.3336 15.0392ZM14.8024 19.7007C14.8024 19.7586 14.771 19.806 14.7326 19.806C14.6942 19.806 14.6628 19.7586 14.6628 19.7007C14.6628 19.6427 14.6942 19.5953 14.7326 19.5953C14.771 19.5953 14.8024 19.6427 14.8024 19.7007ZM18.9919 20.1221C18.9919 20.18 18.9605 20.2274 18.9221 20.2274C18.8837 20.2274 18.8523 20.18 18.8523 20.1221C18.8523 20.0641 18.8837 20.0167 18.9221 20.0167C18.9605 20.0167 18.9919 20.0641 18.9919 20.1221ZM19.5814 20.8771C19.6047 21.1572 19.6465 21.813 19.6744 22.3344C19.7023 22.8559 19.7476 23.3174 19.7752 23.36C19.8257 23.4381 19.6909 23.8585 19.4284 24.4415C19.3501 24.6153 19.2171 24.9314 19.1329 25.1438C18.8906 25.7548 18.7547 26.0099 18.6545 26.0423C18.5804 26.0663 18.5693 25.9672 18.6001 25.5555C18.6785 24.5076 18.8533 23.0949 18.9879 22.4222C19.0285 22.2195 19.0912 21.9034 19.1272 21.7199C19.1632 21.5364 19.228 21.2441 19.2712 21.0702C19.3143 20.8964 19.367 20.6672 19.3882 20.561C19.4562 20.2201 19.5379 20.3538 19.5814 20.8771ZM24.5597 20.9112C24.45 21.0331 24.438 21.349 24.4215 24.5516L24.4034 28.0585L20.0044 28.1288L19.9835 28.4899C19.9652 28.8078 19.9254 28.8907 19.6518 29.1821C19.4809 29.3641 19.3411 29.5414 19.3411 29.5759C19.3411 29.612 20.7335 29.6388 22.612 29.6388C25.6922 29.6388 25.8897 29.6313 25.9985 29.5103C26.1033 29.394 26.1141 29.0025 26.1141 25.341V21.3001L25.9374 21.1223C25.7695 20.9535 25.6051 20.9018 24.9606 20.8154C24.7415 20.786 24.6534 20.8071 24.5597 20.9112ZM14.2435 22.7383C14.243 22.8411 13.9654 23.2475 13.8957 23.2475C13.7925 23.2475 13.8082 23.1704 13.9637 22.9139C14.09 22.7056 14.2442 22.6089 14.2435 22.7383ZM17.1555 23.5796C17.2631 23.7235 17.4397 23.936 17.548 24.0517C17.7381 24.2546 17.7435 24.2806 17.7028 24.7907C17.6796 25.0815 17.6439 25.6958 17.6237 26.1558C17.5888 26.9481 17.5754 27.0092 17.3686 27.3147C17.0664 27.7611 16.7575 28.0203 16.7575 27.8275C16.7575 27.7969 16.6349 27.6357 16.485 27.4691C16.1473 27.0938 16.1199 26.9564 16.0829 25.4587C16.0561 24.3762 16.0653 24.2506 16.1803 24.1243C16.2502 24.0477 16.384 23.8743 16.4775 23.7391C16.6496 23.4905 16.8218 23.324 16.9111 23.32C16.9379 23.3187 17.0479 23.4356 17.1555 23.5796ZM20.1091 24.4415C20.1091 24.4801 20.0777 24.5117 20.0393 24.5117C20.0009 24.5117 19.9695 24.4801 19.9695 24.4415C19.9695 24.4028 20.0009 24.3712 20.0393 24.3712C20.0777 24.3712 20.1091 24.4028 20.1091 24.4415ZM15.2214 24.5734C15.2214 24.6631 15.0161 24.8202 14.9653 24.7693C14.9146 24.7182 15.0708 24.5117 15.1601 24.5117C15.1938 24.5117 15.2214 24.5394 15.2214 24.5734ZM14.9421 25.0033C14.9421 25.042 14.9106 25.0736 14.8722 25.0736C14.8338 25.0736 14.8024 25.042 14.8024 25.0033C14.8024 24.9647 14.8338 24.9331 14.8722 24.9331C14.9106 24.9331 14.9421 24.9647 14.9421 25.0033ZM23.2513 25.0491C23.2513 25.1126 23.5887 25.6423 23.6695 25.7057C23.6942 25.725 23.8159 25.8909 23.94 26.0744C24.0642 26.2579 24.1956 26.408 24.2322 26.408C24.2688 26.408 24.2986 26.1759 24.2986 25.8922C24.2986 25.3201 24.2236 25.1928 23.8448 25.1215C23.7296 25.0998 23.5489 25.0607 23.4433 25.0345C23.3377 25.0084 23.2513 25.0149 23.2513 25.0491ZM12.2612 27.664C12.1568 27.78 12.1458 27.933 12.1716 28.9107C12.1877 29.5236 12.2324 30.1831 12.2708 30.3763C12.3556 30.8026 12.5887 31.5169 12.7379 31.8069C12.8798 32.0829 12.8816 32.0756 12.6413 32.2005C12.505 32.2715 12.2391 32.3076 11.8558 32.3074C11.1876 32.3071 10.9865 32.2162 10.4942 31.692L10.194 31.3723V30.7514C10.194 30.4098 10.1674 30.1304 10.1348 30.1304C9.91375 30.1304 9.16962 31.241 8.95218 31.8955C8.40308 33.5483 9.2539 35.3134 10.7875 35.7029C11.1492 35.7947 12.7305 35.7947 13.0917 35.7027C13.7353 35.539 14.5483 35.0241 15.2027 34.3659C15.615 33.9512 15.78 33.8416 15.78 33.9826C15.78 34.0153 15.5914 34.2414 15.361 34.4849C15.1306 34.7285 14.9421 34.9484 14.9421 34.9736C14.9421 35.054 15.3873 35.5036 15.6403 35.6787C15.7747 35.7717 15.9318 35.8988 15.9894 35.9609C16.1977 36.1859 16.7515 36.5217 16.9141 36.5217C17.0055 36.5217 17.1412 36.4656 17.2156 36.3969C17.2901 36.3282 17.461 36.1941 17.5954 36.0988C17.7298 36.0034 17.96 35.8082 18.107 35.6647C18.4851 35.2957 18.8354 35.2022 18.6359 35.5234C18.5884 35.6 18.4597 35.7159 18.3499 35.7812C18.2401 35.8464 18.0804 35.9693 17.995 36.0543C17.9096 36.1392 17.7298 36.2862 17.5954 36.3809C17.461 36.4756 17.2901 36.6092 17.2156 36.6779C17.1412 36.7465 17.0055 36.8027 16.9141 36.8027C16.7515 36.8027 16.1977 36.4668 15.9894 36.2419C15.9318 36.1797 15.7747 36.0518 15.6403 35.9577C15.5059 35.8636 15.2928 35.6834 15.1667 35.5572C14.9149 35.3052 14.8542 35.2846 14.749 35.4156C14.5757 35.6313 14.4583 37.7674 14.5937 38.2425C14.8546 39.1578 14.9902 39.5521 15.1738 39.9281C15.3625 40.3144 15.7453 40.9322 15.8485 41.0167C15.8721 41.036 15.9671 41.1625 16.0595 41.2977C16.276 41.6142 16.688 42 16.8095 42C16.9428 42 17.3161 41.7979 17.3161 41.7257C17.3161 41.6927 17.4367 41.5408 17.5841 41.3881C18.2666 40.6807 18.9268 39.3546 19.1502 38.2425C19.3163 37.4156 19.1547 35.2967 18.914 35.1471C18.8191 35.0881 19.0345 34.7268 19.3612 34.3972C19.524 34.233 19.7337 33.988 19.8274 33.8528C19.921 33.7176 20.0182 33.5912 20.0434 33.5719C20.1056 33.5241 20.6848 32.5522 20.8665 32.1909C21.087 31.7523 21.5163 30.4171 21.492 30.2455C21.4717 30.1021 21.4347 30.0953 20.6787 30.0953H19.8867L19.7895 30.3763C19.736 30.5308 19.6918 30.7131 19.6912 30.7814C19.6899 30.939 19.0425 32.2422 18.7598 32.6563C18.3439 33.2655 17.1311 34.3445 16.8623 34.3445C16.8228 34.3445 16.6273 34.2339 16.4277 34.0987C16.2281 33.9635 15.9984 33.8528 15.9172 33.8528C15.8145 33.8528 15.7768 33.8156 15.793 33.7299C15.8308 33.5305 16.0763 33.5535 16.3386 33.781C16.7658 34.1516 17.2003 34.0443 17.8254 33.4137C17.988 33.2496 18.1976 33.0048 18.2912 32.8696C18.3849 32.7344 18.4826 32.6079 18.5084 32.5886C18.5979 32.5215 19.0975 31.7056 19.2289 31.4118L19.3612 31.1161L19.1745 30.8324C19.0719 30.6764 18.9433 30.494 18.8889 30.4273C18.8345 30.3606 18.7278 30.227 18.6518 30.1304L18.5138 29.9549L18.2724 30.0843C18.1396 30.1555 17.9959 30.2819 17.9531 30.3652C17.9102 30.4486 17.8672 30.9118 17.8575 31.3946L17.8398 32.2726H15.8149L15.7972 31.3946C15.7875 30.9118 15.7445 30.4486 15.7016 30.3652C15.6588 30.2819 15.515 30.1555 15.3823 30.0843L15.1409 29.9549L15.0029 30.1304C14.9269 30.227 14.8267 30.3534 14.7802 30.4114C14.7337 30.4693 14.6191 30.6273 14.5255 30.7625C14.2351 31.182 14.1352 31.2097 14.082 30.8855C14.0613 30.7599 14.008 30.515 13.9635 30.3411C13.9189 30.1673 13.8566 29.8196 13.8248 29.5686C13.7931 29.3175 13.7445 29.0222 13.7168 28.9125C13.6697 28.7258 12.5624 27.5318 12.4362 27.5318C12.4054 27.5318 12.3266 27.5913 12.2612 27.664ZM23.5475 30.5507C23.4998 30.7047 23.4607 30.9423 23.4607 31.079C23.4607 31.3851 23.1967 31.8046 22.8858 31.9925C22.4902 32.2316 22.1861 32.3055 21.5941 32.3066L21.0192 32.3077L20.8341 32.6764C20.6589 33.0252 20.2734 33.636 20.1802 33.7124C20.1566 33.7317 20.0607 33.8581 19.967 33.9933C19.8734 34.1285 19.6628 34.3743 19.4991 34.5395C19.3354 34.7046 19.2014 34.8691 19.2014 34.9048C19.2014 35.0351 19.871 35.4285 20.4196 35.6206C20.8803 35.782 21.1009 35.8177 21.6403 35.8185C22.0024 35.819 22.3952 35.7899 22.5131 35.7539C22.6311 35.7179 22.869 35.6487 23.0418 35.6C23.8333 35.3772 24.431 34.7618 24.7496 33.8418C24.9083 33.3833 24.8924 32.2969 24.7198 31.8222C24.4935 31.1993 23.8751 30.2709 23.6866 30.2709C23.6578 30.2709 23.5953 30.3968 23.5475 30.5507ZM15.2449 31.8687C15.2619 32.3999 15.2965 32.9451 15.3218 33.0803C15.36 33.2841 15.3364 33.3621 15.1839 33.5368C15.0826 33.6527 14.9511 33.8302 14.8917 33.9311C14.8322 34.0321 14.6973 34.1659 14.592 34.2285C14.4868 34.291 14.2967 34.4399 14.1697 34.5593C13.6253 35.0708 13.0351 35.2552 11.9386 35.2565C10.7987 35.2578 10.4044 35.1305 9.89266 34.5956C9.66196 34.3545 9.5531 34.1454 9.43251 33.7124C9.38412 33.5385 9.31004 33.2759 9.26793 33.1288C9.21103 32.9302 9.21256 32.8023 9.27366 32.6322C9.31898 32.5062 9.35605 32.3488 9.35605 32.2823C9.35605 32.1188 9.62153 31.6054 9.70609 31.6054C9.74337 31.6054 9.87632 31.7622 10.0014 31.9539C10.3424 32.4763 11.1358 32.8665 11.8606 32.8685C12.6906 32.8708 13.8151 32.2749 14.6628 31.3836C14.9124 31.1211 15.1386 30.9056 15.1653 30.9047C15.1921 30.9038 15.2279 31.3376 15.2449 31.8687ZM18.658 31.0841C18.7147 31.2092 18.7181 31.3 18.6689 31.3784C18.5222 31.6123 18.4333 31.5544 18.4333 31.2249C18.4333 30.8682 18.5321 30.8063 18.658 31.0841ZM13.8947 31.3861C13.8947 31.4758 13.6894 31.633 13.6386 31.582C13.5879 31.5309 13.7441 31.3244 13.8334 31.3244C13.8671 31.3244 13.8947 31.3522 13.8947 31.3861ZM24.068 31.6229C24.1042 31.6712 24.1709 31.8451 24.2162 32.0092C24.2616 32.1733 24.3341 32.431 24.3774 32.5817C24.4539 32.8479 24.4486 32.9267 24.313 33.5507C24.2118 34.0159 23.7573 34.6633 23.3909 34.8639C22.8014 35.1866 22.4945 35.2555 21.6453 35.2555C20.8815 35.2555 20.495 35.1843 20.098 34.9706C19.925 34.8775 19.935 34.8231 20.1702 34.5754C20.3907 34.3434 21.0001 33.4551 21.1798 33.1039C21.2855 32.8972 21.3242 32.8793 21.7312 32.8484C22.8052 32.767 23.553 32.3695 23.811 31.7432C23.9042 31.5167 23.9665 31.4875 24.068 31.6229ZM17.4343 32.8392C17.4479 32.8805 17.3864 33.0227 17.2978 33.1553C17.122 33.4184 16.8946 33.4913 16.6542 33.362C16.4979 33.2778 16.2687 32.9456 16.2687 32.8032C16.2687 32.6983 17.3994 32.7332 17.4343 32.8392ZM15.467 36.4988C15.6199 36.6022 15.7608 36.7064 15.78 36.7305C15.7992 36.7546 15.9249 36.8508 16.0593 36.9442C16.1937 37.0377 16.3459 37.1554 16.3976 37.2058C16.4492 37.2563 16.5829 37.3452 16.6946 37.4033C16.8929 37.5064 16.9106 37.5002 17.4386 37.1435C17.736 36.9426 18.0266 36.7266 18.0842 36.6636C18.237 36.4964 18.5205 36.311 18.6235 36.311C18.7317 36.311 18.7515 37.8931 18.6475 38.2375C18.6117 38.3561 18.5432 38.5954 18.4951 38.7692C18.3879 39.1576 17.931 40.0987 17.6428 40.5251C17.4344 40.8333 16.9848 41.2977 16.8947 41.2977C16.6435 41.2977 15.5414 39.7406 15.3536 39.1204C15.17 38.5144 15.0032 37.633 15.008 37.2943C15.0133 36.9245 15.0967 36.311 15.1418 36.311C15.1677 36.311 15.3141 36.3955 15.467 36.4988Z" fill="black"/>
</svg>
