<svg width="258" height="100" viewBox="0 0 258 100" fill="none" xmlns="http://www.w3.org/2000/svg">
<path d="M0 17V82.2027L43 100V34.7973L0 17Z" fill="#FFDC60"/>
<path d="M86 17V82.2027L129 100V34.7973L86 17Z" fill="#FFDC60"/>
<path d="M172 17V82.2027L215 100V34.7973L172 17Z" fill="#FFDC60"/>
<path d="M86 17V82.2027L43 100V34.7973L86 17Z" fill="#FFDC60"/>
<path d="M172 17V82.2027L129 100V34.7973L172 17Z" fill="#FFDC60"/>
<path d="M258 17V82.2027L215 100V34.7973L258 17Z" fill="#FFDC60"/>
<path d="M0 2.99868e-06V65.2027L43 83V17.7973L0 2.99868e-06Z" fill="#FFDC60"/>
<path d="M86 2.99868e-06V65.2027L129 83V17.7973L86 2.99868e-06Z" fill="#FFDC60"/>
<path d="M172 2.99868e-06V65.2027L215 83V17.7973L172 2.99868e-06Z" fill="#FFDC60"/>
<path d="M86 2.99868e-06V65.2027L43 83V17.7973L86 2.99868e-06Z" fill="#FFDC60"/>
<path d="M172 2.99868e-06V65.2027L129 83V17.7973L172 2.99868e-06Z" fill="#FFDC60"/>
<path d="M258 2.99868e-06V65.2027L215 83V17.7973L258 2.99868e-06Z" fill="#FFDC60"/>
</svg>
