<svg width="114" height="63" viewBox="0 0 114 63" fill="none" xmlns="http://www.w3.org/2000/svg">
<path fill-rule="evenodd" clip-rule="evenodd" d="M-66 4.97158V50.5574L-35.8478 63.0001H-35.8478L-5.82395 50.5574L24.1383 62.9747V63.0001L24.169 62.9874L24.1997 63.0001V62.9747L54.1621 50.5574V4.97158L24.169 17.4016L-5.82395 4.97158H-5.82416V4.97167L-35.8478 17.4144H-35.8478L-66 4.97158ZM114 50.5574V4.97156L84.1449 17.3444L54.1622 4.97158V50.5574L83.9761 62.8605V63.0001L84.1449 62.9302L84.3144 63.0001V62.8599L114 50.5574Z" fill="#FFDC60"/>
<path fill-rule="evenodd" clip-rule="evenodd" d="M-66 2.67029e-05V45.5858L-35.8478 58.0286H-35.8478L-5.82395 45.5858L24.1383 58.0031V58.0286L24.169 58.0159L24.1997 58.0286V58.0031L54.1621 45.5858V2.67029e-05L24.169 12.4301L-5.82395 2.67029e-05H-5.82416V0.000114441L-35.8478 12.4428H-35.8478L-66 2.67029e-05ZM114 45.5858V0L84.1449 12.3728L54.1622 2.67029e-05V45.5858L83.9761 57.889V58.0286L84.1449 57.9586L84.3144 58.0286V57.8884L114 45.5858Z" fill="#FFDC60"/>
</svg>
